<svg width="57" height="31" viewBox="0 0 57 31" fill="none" xmlns="http://www.w3.org/2000/svg">
<path d="M15.2055 17.9H11.8735L11.3975 20H9.46547L11.8035 10.2H15.2755L17.6135 20H15.6815L15.2055 17.9ZM12.2655 16.136H14.7995L13.6655 11.124H13.4135L12.2655 16.136ZM20.3757 10.2H22.2237V18.236H26.6757V20H20.3757V10.2ZM35.15 17.9H31.818L31.342 20H29.41L31.748 10.2H35.22L37.558 20H35.626L35.15 17.9ZM32.21 16.136H34.744L33.61 11.124H33.358L32.21 16.136ZM45.1223 17.9H41.7903L41.3143 20H39.3823L41.7203 10.2H45.1923L47.5303 20H45.5983L45.1223 17.9ZM42.1823 16.136H44.7163L43.5823 11.124H43.3303L42.1823 16.136Z" fill="white"/>
<path d="M4.31828 8.11707L28.5 0.524069L52.6817 8.11707V22.8829L28.5 30.4759L4.31828 22.8829V8.11707Z" stroke="white"/>
</svg>
