<svg width="56" height="23" viewBox="0 0 56 23" fill="none" xmlns="http://www.w3.org/2000/svg">
<path d="M20.9735 21.628C32.0045 21.628 40.947 17.0102 40.947 11.314C40.947 5.61773 32.0045 1 20.9735 1C9.94243 1 1 5.61773 1 11.314C1 17.0102 9.94243 21.628 20.9735 21.628Z" stroke="white" stroke-width="0.75" stroke-miterlimit="10"/>
<path d="M25.2664 21.628C36.2975 21.628 45.2399 17.0102 45.2399 11.314C45.2399 5.61773 36.2975 1 25.2664 1C14.2354 1 5.29297 5.61773 5.29297 11.314C5.29297 17.0102 14.2354 21.628 25.2664 21.628Z" stroke="white" stroke-width="0.75" stroke-miterlimit="10"/>
<path d="M30.4607 21.628C41.4918 21.628 50.4342 17.0102 50.4342 11.314C50.4342 5.61773 41.4918 1 30.4607 1C19.4297 1 10.4872 5.61773 10.4872 11.314C10.4872 17.0102 19.4297 21.628 30.4607 21.628Z" stroke="white" stroke-width="0.75" stroke-miterlimit="10"/>
<path d="M35.1544 21.628C46.1854 21.628 55.1279 17.0102 55.1279 11.314C55.1279 5.61773 46.1854 1 35.1544 1C24.1233 1 15.1809 5.61773 15.1809 11.314C15.1809 17.0102 24.1233 21.628 35.1544 21.628Z" stroke="white" stroke-width="0.75" stroke-miterlimit="10"/>
</svg>
