<?xml version="1.0" encoding="utf-8"?>
<!-- Generator: Adobe Illustrator 26.0.3, SVG Export Plug-In . SVG Version: 6.00 Build 0)  -->
<svg version="1.1" id="Layer_1" xmlns="http://www.w3.org/2000/svg" xmlns:xlink="http://www.w3.org/1999/xlink" x="0px" y="0px" width="50" height="50" fill="none"
	 viewBox="0 0 370 340.4" style="enable-background:new 0 0 370 340.4;" xml:space="preserve">

<style type="text/css">
	.st0{fill:#FFFFFF;}
</style>
<g>
	<path class="st0" d="M74.3,264.5c33.1,61.2,109.6,83.9,170.7,50.7c44.8-24.3,70.5-73.1,65.3-123.8c1.2,20.4-3.8,40.6-14.3,58.1
		C263.7,304,190.5,320.3,136,288c-42.7-25.3-64.8-75-56.9-121.6c2.2-15,7.9-29.3,16.5-41.7c10-15.2,23.8-27.5,40.2-35.5l0.1-0.1
		l0.8-0.4l0.6-0.3c2-1,4-2,6-3c-65.7,23.1-100.2,95-77.2,160.6C68.4,252.4,71.1,258.6,74.3,264.5L74.3,264.5z"/>
	<path class="st0" d="M43.4,290.6c-18.8-24.2-30.4-54-33.6-86.3c-3.3-33.2,2.4-66.7,16.5-97c13.4-28.7,33.9-52.7,59.4-69.4
		C114,19.2,147.4,9.8,185,9.8s71,9.4,99.3,28.1c25.4,16.7,46,40.7,59.4,69.4c14.1,30.3,19.8,63.8,16.5,97
		c-3.2,32.4-14.8,62.1-33.6,86.4c31.4-59.4,32.2-119.9,2.2-171.1c-29.9-50.8-87.6-85-143.8-85s-113.9,34.1-143.8,85
		C11.2,170.7,12,231.2,43.4,290.6z"/>
</g>
</svg>
